<svg width="18" height="18" viewBox="0 0 18 18" fill="none" xmlns="http://www.w3.org/2000/svg">
<path fill-rule="evenodd" clip-rule="evenodd" d="M12.385 16.1247H6.12416C3.82439 16.1247 2.06009 15.2941 2.56123 11.9508L3.14476 7.41992C3.45368 5.75173 4.51776 5.11328 5.45139 5.11328H13.0853C14.0326 5.11328 15.0349 5.79978 15.3919 7.41992L15.9754 11.9508C16.4011 14.9165 14.6848 16.1247 12.385 16.1247Z" stroke="#6941C6" stroke-width="1.5" stroke-linecap="round" stroke-linejoin="round"/>
<path d="M12.4884 4.94831C12.4884 3.15876 11.0377 1.70804 9.24815 1.70804V1.70804C8.38639 1.70439 7.55869 2.04416 6.94804 2.65222C6.3374 3.26029 5.99413 4.08655 5.99414 4.94831H5.99414" stroke="#6941C6" stroke-width="1.5" stroke-linecap="round" stroke-linejoin="round"/>
<path d="M11.4717 8.32567H11.4374" stroke="#6941C6" stroke-width="1.5" stroke-linecap="round" stroke-linejoin="round"/>
<path d="M7.09869 8.32567H7.06437" stroke="#6941C6" stroke-width="1.5" stroke-linecap="round" stroke-linejoin="round"/>
</svg>
