<svg width="16" height="16" viewBox="0 0 16 16" fill="none" xmlns="http://www.w3.org/2000/svg">
<path d="M13.9997 7.18634V5.33301C13.9997 4.23301 13.0997 3.33301 11.9997 3.33301H9.33301C8.81967 3.33301 8.35301 3.53301 7.99967 3.85301C7.64634 3.53301 7.17967 3.33301 6.66634 3.33301H3.99967C2.89967 3.33301 1.99967 4.23301 1.99967 5.33301V7.18634C1.59301 7.55301 1.33301 8.07967 1.33301 8.66634V12.6663H2.66634V11.333H13.333V12.6663H14.6663V8.66634C14.6663 8.07967 14.4063 7.55301 13.9997 7.18634ZM9.33301 4.66634H11.9997C12.3663 4.66634 12.6663 4.96634 12.6663 5.33301V6.66634H8.66634V5.33301C8.66634 4.96634 8.96634 4.66634 9.33301 4.66634ZM3.33301 5.33301C3.33301 4.96634 3.63301 4.66634 3.99967 4.66634H6.66634C7.03301 4.66634 7.33301 4.96634 7.33301 5.33301V6.66634H3.33301V5.33301ZM2.66634 9.99967V8.66634C2.66634 8.29967 2.96634 7.99967 3.33301 7.99967H12.6663C13.033 7.99967 13.333 8.29967 13.333 8.66634V9.99967H2.66634Z" fill="#6941C6"/>
</svg>
