<svg width="36" height="36" viewBox="0 0 36 36" fill="none" xmlns="http://www.w3.org/2000/svg">
<circle cx="18" cy="18" r="18" fill="#F9F5FF"/>
<path d="M27 10.5C27.3978 10.5 27.7794 10.658 28.0607 10.9393C28.342 11.2206 28.5 11.6022 28.5 12V24C28.5 24.3978 28.342 24.7794 28.0607 25.0607C27.7794 25.342 27.3978 25.5 27 25.5H9C8.60218 25.5 8.22064 25.342 7.93934 25.0607C7.65804 24.7794 7.5 24.3978 7.5 24V12C7.5 11.6022 7.65804 11.2206 7.93934 10.9393C8.22064 10.658 8.60218 10.5 9 10.5H27ZM9 9C8.20435 9 7.44129 9.31607 6.87868 9.87868C6.31607 10.4413 6 11.2044 6 12L6 24C6 24.7956 6.31607 25.5587 6.87868 26.1213C7.44129 26.6839 8.20435 27 9 27H27C27.7956 27 28.5587 26.6839 29.1213 26.1213C29.6839 25.5587 30 24.7956 30 24V12C30 11.2044 29.6839 10.4413 29.1213 9.87868C28.5587 9.31607 27.7956 9 27 9H9Z" fill="#6941C6"/>
<path d="M9 14.25C9 14.0511 9.07902 13.8603 9.21967 13.7197C9.36032 13.579 9.55109 13.5 9.75 13.5H12.75C12.9489 13.5 13.1397 13.579 13.2803 13.7197C13.421 13.8603 13.5 14.0511 13.5 14.25V15.75C13.5 15.9489 13.421 16.1397 13.2803 16.2803C13.1397 16.421 12.9489 16.5 12.75 16.5H9.75C9.55109 16.5 9.36032 16.421 9.21967 16.2803C9.07902 16.1397 9 15.9489 9 15.75V14.25ZM9 18.75C9 18.5511 9.07902 18.3603 9.21967 18.2197C9.36032 18.079 9.55109 18 9.75 18H17.25C17.4489 18 17.6397 18.079 17.7803 18.2197C17.921 18.3603 18 18.5511 18 18.75C18 18.9489 17.921 19.1397 17.7803 19.2803C17.6397 19.421 17.4489 19.5 17.25 19.5H9.75C9.55109 19.5 9.36032 19.421 9.21967 19.2803C9.07902 19.1397 9 18.9489 9 18.75ZM9 21.75C9 21.5511 9.07902 21.3603 9.21967 21.2197C9.36032 21.079 9.55109 21 9.75 21H11.25C11.4489 21 11.6397 21.079 11.7803 21.2197C11.921 21.3603 12 21.5511 12 21.75C12 21.9489 11.921 22.1397 11.7803 22.2803C11.6397 22.421 11.4489 22.5 11.25 22.5H9.75C9.55109 22.5 9.36032 22.421 9.21967 22.2803C9.07902 22.1397 9 21.9489 9 21.75ZM13.5 21.75C13.5 21.5511 13.579 21.3603 13.7197 21.2197C13.8603 21.079 14.0511 21 14.25 21H15.75C15.9489 21 16.1397 21.079 16.2803 21.2197C16.421 21.3603 16.5 21.5511 16.5 21.75C16.5 21.9489 16.421 22.1397 16.2803 22.2803C16.1397 22.421 15.9489 22.5 15.75 22.5H14.25C14.0511 22.5 13.8603 22.421 13.7197 22.2803C13.579 22.1397 13.5 21.9489 13.5 21.75ZM18 21.75C18 21.5511 18.079 21.3603 18.2197 21.2197C18.3603 21.079 18.5511 21 18.75 21H20.25C20.4489 21 20.6397 21.079 20.7803 21.2197C20.921 21.3603 21 21.5511 21 21.75C21 21.9489 20.921 22.1397 20.7803 22.2803C20.6397 22.421 20.4489 22.5 20.25 22.5H18.75C18.5511 22.5 18.3603 22.421 18.2197 22.2803C18.079 22.1397 18 21.9489 18 21.75ZM22.5 21.75C22.5 21.5511 22.579 21.3603 22.7197 21.2197C22.8603 21.079 23.0511 21 23.25 21H24.75C24.9489 21 25.1397 21.079 25.2803 21.2197C25.421 21.3603 25.5 21.5511 25.5 21.75C25.5 21.9489 25.421 22.1397 25.2803 22.2803C25.1397 22.421 24.9489 22.5 24.75 22.5H23.25C23.0511 22.5 22.8603 22.421 22.7197 22.2803C22.579 22.1397 22.5 21.9489 22.5 21.75Z" fill="#6941C6"/>
</svg>
