<svg width="18" height="18" viewBox="0 0 18 18" fill="none" xmlns="http://www.w3.org/2000/svg">
<path d="M14.712 4.86L14.7225 4.84725L11.7225 2.41725L10.7775 3.58275L12.3278 4.83825C11.9436 5.07164 11.6384 5.4151 11.4519 5.82407C11.2653 6.23304 11.2059 6.68864 11.2815 7.13175C11.3932 7.806 11.856 8.38875 12.4552 8.71575C13.128 9.08325 13.719 9.05025 14.2432 8.8635L14.232 13.5C14.2329 13.6242 14.2028 13.7466 14.1445 13.8563C14.0862 13.9659 14.0014 14.0593 13.8979 14.1279C13.7944 14.1966 13.6755 14.2384 13.5518 14.2495C13.4281 14.2606 13.3036 14.2406 13.1895 14.1915C13.1002 14.1533 13.0191 14.098 12.951 14.0287C12.8817 13.9593 12.8267 13.8768 12.7893 13.7861C12.7518 13.6954 12.7326 13.5982 12.7327 13.5L12.75 12C12.7508 11.7048 12.693 11.4123 12.5801 11.1396C12.4672 10.8668 12.3014 10.6191 12.0922 10.4107C11.8833 10.2014 11.6351 10.0352 11.3619 9.92183C11.0887 9.80845 10.7958 9.75006 10.5 9.75H9.75V3.75C9.75 2.92275 9.07725 2.25 8.25 2.25H3C2.17275 2.25 1.5 2.92275 1.5 3.75V14.25C1.5 15.0773 2.17275 15.75 3 15.75H8.25C9.07725 15.75 9.75 15.0773 9.75 14.25V11.25H10.5C10.602 11.25 10.7002 11.2703 10.7933 11.3085C10.9717 11.3866 11.114 11.5295 11.1915 11.7083C11.2304 11.8006 11.2503 11.8998 11.25 12L11.232 13.5C11.232 13.8045 11.2913 14.0992 11.409 14.376C11.5223 14.6452 11.685 14.886 11.8897 15.0892C12.0979 15.2997 12.346 15.4665 12.6194 15.5799C12.8928 15.6934 13.186 15.7512 13.482 15.75C13.7865 15.75 14.0805 15.6915 14.358 15.573C14.6265 15.4605 14.868 15.2977 15.0712 15.0922C15.2812 14.8837 15.4477 14.6356 15.5611 14.3623C15.6746 14.089 15.7326 13.7959 15.732 13.5L15.75 6.75C15.7493 6.37322 15.6538 6.00266 15.4724 5.67241C15.291 5.34215 15.0296 5.06279 14.712 4.86ZM3 3.75H8.25L8.25075 6.75H3V3.75ZM3 14.25V8.25H8.25075L8.2515 14.25H3ZM13.5 7.5C13.3011 7.5 13.1103 7.42098 12.9697 7.28033C12.829 7.13968 12.75 6.94891 12.75 6.75C12.75 6.55109 12.829 6.36032 12.9697 6.21967C13.1103 6.07902 13.3011 6 13.5 6C13.6989 6 13.8897 6.07902 14.0303 6.21967C14.171 6.36032 14.25 6.55109 14.25 6.75C14.25 6.94891 14.171 7.13968 14.0303 7.28033C13.8897 7.42098 13.6989 7.5 13.5 7.5Z" fill="#6941C6"/>
</svg>
