<svg width="18" height="18" viewBox="0 0 18 18" fill="none" xmlns="http://www.w3.org/2000/svg">
<g clip-path="url(#clip0_555_9159)">
<path d="M5.625 10.6875H6.75V11.8125H5.625V10.6875ZM8.4375 10.6875H9.5625V11.8125H8.4375V10.6875ZM11.25 10.6875H12.375V11.8125H11.25V10.6875Z" fill="#6941C6"/>
<path d="M15.4688 16.3125V3.09375H12.9375V0.5625H5.0625V3.09375H2.53125V16.3125H0.5625V17.4375H17.4375V16.3125H15.4688ZM6.1875 1.6875H11.8125V7.3125H6.1875V1.6875ZM14.3438 16.3125H9.5625V14.0625H8.4375V16.3125H3.65625V4.21875H5.0625V8.4375H12.9375V4.21875H14.3438V16.3125Z" fill="#6941C6"/>
<path d="M9.5625 2.8125H8.4375V3.9375H7.3125V5.0625H8.4375V6.1875H9.5625V5.0625H10.6875V3.9375H9.5625V2.8125Z" fill="#6941C6"/>
</g>
<defs>
<clipPath id="clip0_555_9159">
<rect width="18" height="18" fill="white"/>
</clipPath>
</defs>
</svg>
