<svg width="24" height="24" viewBox="0 0 24 24" fill="none" xmlns="http://www.w3.org/2000/svg">
<path d="M20.8642 15.9379V8.44512C20.863 7.3316 20.4201 6.26405 19.6327 5.47667C18.8453 4.68929 17.7778 4.24639 16.6642 4.24512H7.33184C6.21832 4.24639 5.15077 4.68929 4.36339 5.47667C3.57601 6.26405 3.13311 7.3316 3.13184 8.44512V12.3931C3.13311 13.5066 3.57601 14.5742 4.36339 15.3616C5.15077 16.1489 6.21832 16.5918 7.33184 16.5931H14.5534C17.6554 16.5931 19.7554 19.4731 19.7758 19.5031C19.8495 19.6071 19.9543 19.6849 20.0752 19.7253C20.196 19.7657 20.3266 19.7666 20.448 19.7278C20.5694 19.6891 20.6753 19.6127 20.7503 19.5097C20.8254 19.4067 20.8657 19.2825 20.8654 19.1551V15.9907C20.8652 15.9731 20.8644 15.9555 20.863 15.9379H20.8642ZM19.6666 17.6011C18.3017 16.2474 16.476 15.4588 14.5546 15.3931H7.33304C6.53768 15.3922 5.77517 15.0758 5.21277 14.5134C4.65037 13.951 4.33399 13.1885 4.33304 12.3931V8.44512C4.33399 7.64976 4.65037 6.88725 5.21277 6.32485C5.77517 5.76245 6.53768 5.44607 7.33304 5.44512H16.6642C17.4596 5.44607 18.2221 5.76245 18.7845 6.32485C19.3469 6.88725 19.6633 7.64976 19.6642 8.44512V15.9931C19.6642 16.0099 19.6642 16.0279 19.6666 16.0459V17.6011ZM16.2994 8.01672C16.2994 8.17585 16.2362 8.32846 16.1237 8.44098C16.0112 8.5535 15.8586 8.61672 15.6994 8.61672H10.2286C10.0695 8.61672 9.91689 8.5535 9.80437 8.44098C9.69185 8.32846 9.62864 8.17585 9.62864 8.01672C9.62864 7.85759 9.69185 7.70497 9.80437 7.59245C9.91689 7.47993 10.0695 7.41672 10.2286 7.41672H15.6994C15.8586 7.41672 16.0112 7.47993 16.1237 7.59245C16.2362 7.70497 16.2994 7.85759 16.2994 8.01672ZM16.2994 10.4167C16.2994 10.5758 16.2362 10.7285 16.1237 10.841C16.0112 10.9535 15.8586 11.0167 15.6994 11.0167H8.30024C8.14111 11.0167 7.98849 10.9535 7.87597 10.841C7.76345 10.7285 7.70024 10.5758 7.70024 10.4167C7.70024 10.2576 7.76345 10.105 7.87597 9.99245C7.98849 9.87993 8.14111 9.81672 8.30024 9.81672H15.6994C15.8586 9.81672 16.0112 9.87993 16.1237 9.99245C16.2362 10.105 16.2994 10.2576 16.2994 10.4167ZM16.2994 12.8167C16.2994 12.9758 16.2362 13.1285 16.1237 13.241C16.0112 13.3535 15.8586 13.4167 15.6994 13.4167H8.30024C8.14111 13.4167 7.98849 13.3535 7.87597 13.241C7.76345 13.1285 7.70024 12.9758 7.70024 12.8167C7.70024 12.6576 7.76345 12.505 7.87597 12.3925C7.98849 12.2799 8.14111 12.2167 8.30024 12.2167H15.6994C15.8586 12.2167 16.0112 12.2799 16.1237 12.3925C16.2362 12.505 16.2994 12.6576 16.2994 12.8167Z" fill="#6941C6"/>
</svg>
