<svg width="26" height="26" viewBox="0 0 26 26" fill="none" xmlns="http://www.w3.org/2000/svg">
<path d="M22.7265 12.7369C22.7335 12.1994 22.4424 11.7053 21.9695 11.446L10.9506 5.39192C10.4571 5.11298 9.87528 5.14725 9.41022 5.46482C8.93663 5.78773 8.69422 6.55644 8.82661 7.11164L9.85528 11.4213C9.96088 11.8633 10.3564 12.1744 10.8114 12.1725L16.9434 12.1535C17.2574 12.1472 17.5121 12.4018 17.5058 12.7158C17.5048 13.0245 17.2539 13.2754 16.9399 13.2817L10.8021 13.296C10.3471 13.2969 9.94961 13.6094 9.84126 14.052L8.77622 18.3789C8.64691 18.8902 8.79434 19.4006 9.15511 19.7614C9.19756 19.8038 9.24531 19.8516 9.29309 19.8887C9.7603 20.2491 10.3722 20.2951 10.8946 20.0168L21.9509 14.0219C22.4253 13.7703 22.7196 13.2744 22.7265 12.7369Z" fill="white"/>
</svg>
